<svg xmlns="http://www.w3.org/2000/svg" xmlns:xlink="http://www.w3.org/1999/xlink" width="100.0" height="100.0" viewBox="-114.25856093409 51.13324633582818 0.02531683548035346 0.021937235728422877" preserveAspectRatio="xMinYMin meet"><g transform="matrix(1,0,0,-1,0,102.2884299073848)"><g><path fill-rule="evenodd" fill="#66cc99" stroke="#555555" stroke-width="0.0005063367096070692" opacity="0.6" d="M -114.25456091875425,51.15421757725325 L -114.24587263735995,51.154220216050156 L -114.23724007996321,51.1542395848593 L -114.23580273180706,51.15424275720134 L -114.23436538339132,51.154245910983256 L -114.23421893697572,51.154163089343015 L -114.2342052700239,51.153596349744745 L -114.2342100722543,51.15202456567913 L -114.23421227237166,51.14922403758417 L -114.23419286635915,51.14792512586412 L -114.23419362959987,51.146847454057465 L -114.2341863148442,51.143207788008056 L -114.23420599461778,51.138630806927274 L -114.23420147088676,51.13807362683466 L -114.23418175918299,51.13754975841647 L -114.23418299760408,51.13718557352612 L -114.23420765169863,51.13685053817081 L -114.23426436620142,51.1365119775817 L -114.23429726924405,51.13627142889418 L -114.23427544554549,51.134992836561274 L -114.23428262411808,51.13489459002277 L -114.2343144502191,51.13477857918136 L -114.23438721611271,51.13466248629226 L -114.23451447851733,51.13452803339056 L -114.23487561151067,51.13418399640153 L -114.25703384647848,51.14347315536806 L -114.2576101080573,51.14371404405318 L -114.25760951982026,51.144423549424985 L -114.25760752910996,51.14682698170733 L -114.25761711171364,51.15122439885221 L -114.25761770658902,51.15149399976426 L -114.25762327351666,51.15401658020256 L -114.25762308529265,51.15421637680032 L -114.25456091875425,51.15421757725325 z" /></g></g></svg>