<svg xmlns="http://www.w3.org/2000/svg" xmlns:xlink="http://www.w3.org/1999/xlink" width="100.0" height="100.0" viewBox="-114.1842716555816 51.07913980940146 0.060821258332708794 0.0337230076657562" preserveAspectRatio="xMinYMin meet"><g transform="matrix(1,0,0,-1,0,102.19200262646868)"><g><path fill-rule="evenodd" fill="#66cc99" stroke="#555555" stroke-width="0.0012164251666541758" opacity="0.6" d="M -114.12899461682751,51.08543125741383 L -114.12818697029226,51.08492236280819 L -114.12746051464633,51.08442930470455 L -114.12656632167167,51.083780302731135 L -114.12600585556504,51.08332073821833 L -114.1257030364464,51.083064419673626 L -114.12666149672681,51.08239088532718 L -114.12712073035061,51.082145980881954 L -114.1275687867868,51.081947198482894 L -114.1279500054974,51.081820003130346 L -114.12838280324206,51.08169925123983 L -114.12882082597118,51.08160449823425 L -114.12926924273818,51.0815389881108 L -114.1298156898326,51.081496123036686 L -114.13063172052192,51.0814920775907 L -114.1342229126686,51.081492014709305 L -114.13750510520713,51.08148778872247 L -114.1412213158396,51.08148281947884 L -114.14493763377811,51.08148043427478 L -114.15221556714064,51.0814635672968 L -114.15649749044115,51.08147109821503 L -114.15666077735877,51.081406967372274 L -114.15689161981996,51.081396424860465 L -114.15755884223216,51.08139244859897 L -114.15778196812472,51.081396745009016 L -114.15784481591481,51.08140010591946 L -114.1578985568505,51.08140347909605 L -114.15796414463699,51.08140970664767 L -114.15802793671484,51.0814196106734 L -114.15808143635881,51.08142964544749 L -114.15813793638031,51.081441052459304 L -114.15824186954438,51.08146804808867 L -114.15828529549616,51.08146701392221 L -114.15834261853186,51.08146738308646 L -114.1584735387214,51.08146765518188 L -114.15853330879303,51.08145991403911 L -114.15873819319661,51.08146017811233 L -114.15897556636082,51.08146048395403 L -114.15991911396043,51.08145939489093 L -114.16125133155097,51.08145783559914 L -114.16184559071914,51.08145713401491 L -114.16304704705865,51.08145547989863 L -114.1644307250272,51.0814531914111 L -114.16457918083577,51.081453378965776 L -114.16551038066164,51.081459634599014 L -114.16637209275517,51.08146208019816 L -114.16787020651141,51.08145993869622 L -114.16783361992395,51.08148070615375 L -114.16770563747735,51.081545361128484 L -114.16753393735154,51.08163862985408 L -114.1673766595334,51.08173774884149 L -114.16723549183813,51.08184453075137 L -114.1671267992932,51.08196073130724 L -114.16709806101869,51.08201025070401 L -114.16707466018774,51.08203552627956 L -114.16702657956573,51.082088030903655 L -114.16697240413416,51.08217211508044 L -114.1669293339817,51.082260247610726 L -114.16686897019254,51.08234207517249 L -114.16683588452234,51.082401237646195 L -114.16682342594018,51.08242931132501 L -114.16683441360134,51.082464480365246 L -114.16682949451521,51.08247772918727 L -114.16681820716808,51.08250606279358 L -114.1668033623087,51.082541700197645 L -114.16679496885313,51.08256910283629 L -114.16678659787364,51.08259878972045 L -114.16678243400592,51.08261567828415 L -114.16677771386532,51.08264854140781 L -114.16677084355658,51.08268278301969 L -114.16676453772251,51.08270333343862 L -114.16675329051658,51.082735315892286 L -114.16674208635519,51.08277093910461 L -114.16673805239455,51.082800152335196 L -114.16673477040793,51.08283209645744 L -114.16673802179562,51.082863105324655 L -114.16674054691974,51.08289456561043 L -114.16674226085827,51.082918735521915 L -114.16674259766546,51.08294929996015 L -114.16673927074261,51.0829766863771 L -114.1667338402181,51.08301046835658 L -114.16672693307152,51.08304242663705 L -114.16672658341999,51.083076182491666 L -114.16672838233814,51.08310811127565 L -114.16672515626009,51.08314370512693 L -114.16673205856084,51.08317789113345 L -114.16674033824053,51.08320614288413 L -114.16674503278725,51.08323759917495 L -114.16674978327903,51.08327270519635 L -114.16675739923852,51.08330689018274 L -114.16675996280334,51.08334109226372 L -114.1667690137047,51.08337344130724 L -114.16678237297555,51.083401676818525 L -114.16679579638094,51.0834358355376 L -114.16681715147102,51.08346494961546 L -114.16684507728225,51.08349951014995 L -114.16686787230486,51.08352816368962 L -114.16689358383006,51.08355817050328 L -114.16692728165172,51.08358997283461 L -114.16696682532285,51.083624480792274 L -114.16699908194086,51.08365674363452 L -114.16704729682259,51.08368940528347 L -114.1670802380976,51.08371755884066 L -114.16711614090475,51.08375163235485 L -114.16715418904147,51.08378296093806 L -114.16718782299755,51.083808829196336 L -114.16724174752143,51.083833257940654 L -114.16728829325518,51.08384584881933 L -114.16733842085293,51.08385431727911 L -114.16739098925743,51.08388695457484 L -114.16741311948358,51.083921083673786 L -114.16742935575417,51.08394748109423 L -114.16748023861473,51.08395913974809 L -114.16753175792884,51.083961672942145 L -114.16758540969512,51.08396147019398 L -114.16763766019974,51.08396490935206 L -114.16767684954057,51.08396749701863 L -114.16772406432942,51.08397597848014 L -114.16775173077158,51.08398590924129 L -114.1677975458095,51.08399804339072 L -114.16785069484663,51.08401745762397 L -114.16790380213783,51.08403321309305 L -114.16795974250616,51.08404303038 L -114.16801130726708,51.08405059032671 L -114.16805712243331,51.08406272347521 L -114.16811025239512,51.08408076219668 L -114.16815686317949,51.08409974519738 L -114.1682012402212,51.08411279820413 L -114.16825791032102,51.08412307367117 L -114.16831383493916,51.0841324332366 L -114.16836687486705,51.08414134744548 L -114.16841992123699,51.08415163704208 L -114.16846498783752,51.08416195609256 L -114.16851519984466,51.084178182918954 L -114.16856176575016,51.084192599065204 L -114.16860906122295,51.08420746272578 L -114.16865560627829,51.084220053959626 L -114.16870360884263,51.08423310154545 L -114.1687486964648,51.08424523637155 L -114.16880395285932,51.08425916342442 L -114.16884906148196,51.084273132076206 L -114.16890438069504,51.08429253370597 L -114.16894654993008,51.08430239738379 L -114.1689959264327,51.08430859362688 L -114.16905259694371,51.08431886780902 L -114.16909113792926,51.08432829708555 L -114.16914562144837,51.08433766732686 L -114.16920008378123,51.08434474520505 L -114.16924146106287,51.08434915408579 L -114.16929011280908,51.08435579983878 L -114.16932638312086,51.084357033737476 L -114.16937355149898,51.084360040783714 L -114.1694134729576,51.084364442722965 L -114.16946872302186,51.08437654366668 L -114.16951818818902,51.08439094713848 L -114.16956686291763,51.084400342686116 L -114.1696191512136,51.08440652455417 L -114.16967436948474,51.08441770939842 L -114.16971443267401,51.08443351893305 L -114.169739940137,51.08444573573592 L -114.16978656479618,51.08446471716712 L -114.16983382045834,51.08447593147863 L -114.1698824517498,51.08448121957316 L -114.16993768444918,51.084492405171005 L -114.16999070724226,51.08449995133763 L -114.17004452444412,51.084514339269084 L -114.17009184672838,51.084532402616375 L -114.17014268278085,51.08453950331043 L -114.17018043170204,51.08454300918138 L -114.17021818703803,51.08454787247245 L -114.17026977010605,51.08455588897097 L -114.17032498200957,51.084565248612094 L -114.17037361176602,51.08457007803089 L -114.17041570102492,51.0845735595215 L -114.1704679493533,51.08457654973188 L -114.17051070527859,51.08457501397492 L -114.17055126909764,51.084571207011166 L -114.17058968637008,51.08457014411874 L -114.17064204272141,51.08458270810262 L -114.17069675964582,51.08461305919287 L -114.17074997860298,51.08463931315117 L -114.17080169308386,51.08466009456818 L -114.17085696651898,51.084674471008306 L -114.17090420025795,51.08468386810485 L -114.17092683207721,51.08469838122032 L -114.17097869370501,51.08473193667846 L -114.17102753226547,51.084755005579716 L -114.17108274936783,51.0847652818026 L -114.17113795833359,51.08477373310632 L -114.17118538466097,51.084800462808275 L -114.17123772573305,51.08481302654752 L -114.17128993405136,51.08481282511299 L -114.1713406846082,51.084811717833844 L -114.17138637842106,51.08481335979781 L -114.17142990305936,51.084815472387895 L -114.1714726927698,51.08481530266105 L -114.17152932237201,51.0848219178018 L -114.1715809127213,51.084831758615906 L -114.1716303531783,51.08484341847859 L -114.17167261296656,51.08486241545313 L -114.17171999763325,51.084885495189376 L -114.17176652317967,51.08489626030773 L -114.17180573143854,51.08490021209493 L -114.17186156680658,51.08490044646843 L -114.1719174246697,51.084902513777806 L -114.17196384678296,51.08490461291879 L -114.172011745472,51.084908067310565 L -114.1720582287826,51.0849147330812 L -114.1721084010431,51.08492776708563 L -114.17215059428617,51.08493991384956 L -114.17218767550087,51.08494797692405 L -114.17222324090825,51.08495103586728 L -114.17225949547672,51.08495134294238 L -114.1723015787514,51.08495346632132 L -114.1723538324287,51.08495736363871 L -114.17240687915178,51.084967642435615 L -114.172454911386,51.08498433824657 L -114.17249506362796,51.08500835427336 L -114.17250242122307,51.08501790843656 L -114.17254411555867,51.08505012974825 L -114.17259555892751,51.08504719599724 L -114.17264056214034,51.08505112186913 L -114.17269135359912,51.08505365476357 L -114.1727342801525,51.08506717565446 L -114.17278376698911,51.08508386019136 L -114.17282968954295,51.085104667249304 L -114.17287413403986,51.08512410105373 L -114.17292641416236,51.08513119840192 L -114.17298199290987,51.0851042649106 L -114.17308154630456,51.08510013694351 L -114.17317435528746,51.08526830608155 L -114.17327603986993,51.085296618543765 L -114.17335483214097,51.08532919001215 L -114.17338862676151,51.08535519288689 L -114.17343448342146,51.085370066616306 L -114.17348903884071,51.08538626688218 L -114.17353922771257,51.08539930024734 L -114.17359081598536,51.08540868170361 L -114.17362857409759,51.085414002362725 L -114.17366634678099,51.08541978146158 L -114.173716456167,51.08542643219678 L -114.17376877583425,51.08543672044538 L -114.17381315887577,51.08545022978516 L -114.1738612505927,51.08547148269616 L -114.17387437707755,51.08547780988854 L -114.17392255818656,51.08550728010659 L -114.17397300271193,51.0855431197198 L -114.17401667767905,51.08555845494059 L -114.17407344015275,51.08557693502677 L -114.17412219466087,51.085591795181834 L -114.17416874431947,51.08560484268605 L -114.17421385556774,51.08561835078866 L -114.17425750783272,51.08563140257482 L -114.17430266682692,51.08565038528616 L -114.17434857147481,51.08567027482562 L -114.17439442875352,51.085685148177106 L -114.17444897834801,51.08569999146071 L -114.1744999254562,51.08571712257511 L -114.17454709727352,51.08572058600274 L -114.17459866980882,51.08572905009038 L -114.17462948849102,51.085760864381555 L -114.1746841508192,51.08578664692651 L -114.17473146760592,51.08580242592246 L -114.17477950123944,51.08581866230117 L -114.17482901046364,51.085836712368604 L -114.17487055880522,51.08585570924898 L -114.17491716894807,51.08587331413125 L -114.17496378774385,51.08589320325915 L -114.17500675632074,51.085909913688376 L -114.17505774133697,51.08592978725334 L -114.17511089701411,51.08594918918269 L -114.17515386600333,51.08596635892971 L -114.17520260352904,51.085980301711885 L -114.17524554764226,51.085994271137 L -114.17526884588469,51.08600330769691 L -114.17530812232468,51.08601364177757 L -114.17534881604361,51.086021689442276 L -114.17540480246296,51.08603470521985 L -114.17545066560925,51.0860509445787 L -114.17550527947112,51.08607125209775 L -114.17555770790592,51.086091123277576 L -114.1755882924322,51.086101945869224 L -114.17563849274491,51.08611726259235 L -114.17567924669645,51.08612986781814 L -114.17572871770423,51.0861451855983 L -114.17577820962084,51.086161868858156 L -114.17583351104884,51.08617898385431 L -114.17588737265599,51.086196560362815 L -114.17593104716171,51.08621144448519 L -114.17598634696878,51.086228101836774 L -114.17603435509498,51.086241146402 L -114.17608890899746,51.086256437498115 L -114.1761288980696,51.08626676933054 L -114.17618055144624,51.08628162425912 L -114.17623001552842,51.08629465756029 L -114.17628307125767,51.08630630101479 L -114.17633615936246,51.08631931981711 L -114.1763863392524,51.08633326802063 L -114.17642561622014,51.08634360172479 L -114.17647291783119,51.08635846309081 L -114.1765165944253,51.08637380636358 L -114.17656026406658,51.086387315736324 L -114.17661048447845,51.086403996644336 L -114.1766650620558,51.08642203018623 L -114.17671746633567,51.08643869875863 L -114.17676262187902,51.08645630510267 L -114.1768085691257,51.08647939393525 L -114.17683847539507,51.08649524335379 L -114.17685304072633,51.086500660077284 L -114.1768974701865,51.08651872594102 L -114.17695064715006,51.08653996089466 L -114.1769994314708,51.086558011138784 L -114.17705404660671,51.08657831793132 L -114.1771006419899,51.086595014006676 L -114.17714942327915,51.08661261380984 L -114.17720406154645,51.086635204774126 L -114.17723755097323,51.086647388961815 L -114.17727836960974,51.086665478133526 L -114.17732207287446,51.08668354493665 L -114.17736358048934,51.08669889118207 L -114.17741238116503,51.086717399702245 L -114.17746848080328,51.0867413538571 L -114.17751887404603,51.086773542203915 L -114.17756917708388,51.08679706461715 L -114.17761946066592,51.086819220607374 L -114.17767418940181,51.086850026879766 L -114.17772232478436,51.08687401099453 L -114.1777770522258,51.086904817220514 L -114.177833168276,51.08692922065871 L -114.1778791873458,51.08695960947649 L -114.17792949567549,51.086984038784514 L -114.17797988426132,51.087014861406736 L -114.17802882225247,51.08704705174787 L -114.17808566835441,51.08707192141598 L -114.17813170897638,51.08710412511664 L -114.17817440214603,51.087111720165915 L -114.17820221451002,51.087117323295026 L -114.17824901194182,51.087142146170315 L -114.17830249240477,51.08717143479505 L -114.17835016510587,51.08720075922381 L -114.17840574412112,51.0872263858015 L -114.17846247471539,51.08723559544576 L -114.17851741656001,51.08726624008128 L -114.17856360912481,51.08729329229451 L -114.17861419421007,51.08732305266123 L -114.17865394004437,51.08735470841168 L -114.17870734984896,51.08738034714981 L -114.17876385288535,51.08741599653229 L -114.17881010263659,51.087446698368666 L -114.17885624569263,51.08747192563709 L -114.17890005879894,51.08748850838399 L -114.17895247375975,51.08750002575083 L -114.17899417106902,51.0875198120255 L -114.17904758267908,51.087545450604935 L -114.17909887676261,51.087573844143435 L -114.17915598545571,51.08760355832265 L -114.17920703544122,51.087620093906025 L -114.17926256027832,51.087642529722125 L -114.1793167374812,51.087670441392376 L -114.17936663113939,51.08770203638643 L -114.17941152718956,51.08773684924131 L -114.17943241539369,51.08776816418549 L -114.17948159906352,51.087800669075875 L -114.17950863441362,51.08781189163398 L -114.17955960827467,51.08782342082949 L -114.17961044143308,51.08782809828812 L -114.17965567720132,51.08784330404424 L -114.1797002708922,51.087862618152485 L -114.17975517835765,51.08789098696982 L -114.17979691020597,51.087912139334804 L -114.17984808542899,51.087935057114755 L -114.17990368398569,51.087961600793854 L -114.17921536122401,51.08925999917353 L -114.17884367707296,51.090333929815856 L -114.1785990047411,51.09195194826669 L -114.17862924036906,51.09386788164268 L -114.17902520790516,51.09571230135913 L -114.1793066934545,51.09622634395375 L -114.18161378708626,51.10351495676279 L -114.18201901638409,51.103883795950644 L -114.18178786474436,51.10403811230163 L -114.181575643137,51.10422792679508 L -114.18138862949614,51.10445717804654 L -114.18127059021431,51.10470606065792 L -114.18092477528936,51.10597575394552 L -114.18077008680744,51.10646549656375 L -114.18060254299961,51.1068723589687 L -114.18039729033079,51.10724769775949 L -114.17921051256964,51.109469024328995 L -114.17897114155363,51.109883050198974 L -114.17874775859497,51.11013472965681 L -114.1782491996958,51.11061017786971 L -114.17146716697205,51.1077699518045 L -114.16515170364158,51.105111174927345 L -114.16306069892542,51.104212585336676 L -114.16199316034813,51.10381511481068 L -114.16038091341525,51.10325740164598 L -114.15873539088265,51.10269971049456 L -114.15743454780069,51.102253520266 L -114.15620019494011,51.101758232239845 L -114.15539864689133,51.10141459292722 L -114.15445958980295,51.100924451957304 L -114.15352060926368,51.10045185291502 L -114.15237679279753,51.09977477044124 L -114.1494477632102,51.09803072078014 L -114.14234699235368,51.09384253084811 L -114.13884797348676,51.09173343908845 L -114.13798535606311,51.09122362880666 L -114.13748555161446,51.09083873617944 L -114.13704254666551,51.09049660520507 L -114.13657652570085,51.0900331451939 L -114.13607655725386,51.08958399930027 L -114.1355653273565,51.08915627948697 L -114.1349066398376,51.08867875856603 L -114.13268212250505,51.087517718912565 L -114.13070724106609,51.08643488272877 L -114.12899461682751,51.08543125741383 z" /></g></g></svg>