<svg xmlns="http://www.w3.org/2000/svg" xmlns:xlink="http://www.w3.org/1999/xlink" width="100.0" height="100.0" viewBox="-114.04439506135357 51.02165561325801 0.04308470860831903 0.024969820492948713" preserveAspectRatio="xMinYMin meet"><g transform="matrix(1,0,0,-1,0,102.06828104700898)"><g><path fill-rule="evenodd" fill="#66cc99" stroke="#555555" stroke-width="0.0008616941721663806" opacity="0.6" d="M -114.0368001929477,51.04399814549069 L -114.03674847160868,51.043983363762045 L -114.03671294841372,51.043984478865084 L -114.03665657459086,51.04399941861962 L -114.03660304849603,51.044010689643386 L -114.03656537340028,51.04401364018031 L -114.03652616849877,51.04401158390104 L -114.03647381053956,51.044003202041885 L -114.0364396081475,51.04399562537433 L -114.03638497639308,51.043980861472676 L -114.03633189192983,51.04397157181286 L -114.03627807807287,51.04396320020726 L -114.03623084323566,51.04395753244772 L -114.03619010826166,51.04394999189291 L -114.03613705238787,51.04394252795082 L -114.03608328493682,51.043936898110175 L -114.03602651786805,51.04392488555888 L -114.03596956802353,51.04389963115705 L -114.03592004598413,51.043886663412174 L -114.03586618594156,51.04387919959421 L -114.03581829954844,51.04387354085758 L -114.03576160601742,51.043866094940185 L -114.03570635387409,51.043858190078524 L -114.0356554511304,51.04385024880397 L -114.03560088071717,51.04383868576137 L -114.03555134318843,51.043823892948716 L -114.03549891047412,51.04381048541357 L -114.03548436146728,51.04380782887006 L -114.03544797578579,51.0437998111789 L -114.03539122400771,51.043788715267105 L -114.03535123189587,51.043782541533474 L -114.03529456954254,51.04377647080947 L -114.03524725847397,51.043765777413526 L -114.03521011745929,51.04375639343636 L -114.0351722244237,51.043753859851705 L -114.03512656191248,51.04373564060364 L -114.03507803199469,51.04371593979099 L -114.03503167348079,51.04370127165995 L -114.0349802132469,51.04369117182288 L -114.0349331044901,51.043683813430775 L -114.03488455512033,51.0436760059629 L -114.03483745482812,51.04366087949961 L -114.03479761408562,51.04364712718466 L -114.03475343584498,51.04363017580024 L -114.0347027125096,51.04361368392008 L -114.03465706893378,51.04360129882066 L -114.03460489621384,51.04359164941516 L -114.03455416245137,51.0435801827355 L -114.03450054575693,51.0435655084483 L -114.03444982664243,51.04355449120575 L -114.03440127368529,51.043543473303544 L -114.03434910082753,51.04353154938081 L -114.03430345776593,51.04351962351847 L -114.0342549094968,51.04350906492956 L -114.03420128468468,51.04349668288982 L -114.03415274870765,51.04348338328454 L -114.03410783351781,51.043468256787214 L -114.03406291869413,51.04345358964801 L -114.03401655002652,51.04343983896866 L -114.03396583268282,51.043426998396995 L -114.03391367374533,51.04341232341658 L -114.0338629687207,51.04339674002838 L -114.03381443161638,51.04338161536639 L -114.03376951630834,51.043366039252106 L -114.03373619723124,51.04335411949524 L -114.03369055536449,51.043339451523536 L -114.03363621613148,51.043326611852585 L -114.03358839757448,51.04331696972952 L -114.03354345707413,51.04330778523743 L -114.03349636484037,51.04329677732739 L -114.03344349055403,51.043278443519476 L -114.03340219788441,51.04326332560263 L -114.03336090885031,51.04325323203337 L -114.03330510199189,51.04324175906705 L -114.03325656785007,51.043230292095636 L -114.0332058376612,51.04321881673826 L -114.0331493309495,51.043203685073905 L -114.03310875437802,51.04319267515929 L -114.03306528269495,51.04318121566394 L -114.03301458027855,51.043166539869695 L -114.03296241953883,51.04315049892383 L -114.03291024904419,51.043136740451295 L -114.03286605051385,51.04312573057318 L -114.03281968349376,51.04311334675667 L -114.03277695186573,51.043099595462415 L -114.0327284134928,51.043081727580685 L -114.032686410612,51.04306797515025 L -114.03263930313824,51.04305696689873 L -114.03259076967548,51.043045958126854 L -114.03254149374042,51.04303356512221 L -114.03249368709892,51.04301981513711 L -114.03244007455392,51.04300513990229 L -114.03238863021642,51.04299138189404 L -114.03225385796713,51.042962470415766 L -114.03221619119236,51.042951917864436 L -114.03217344690096,51.04293999935989 L -114.03212926014507,51.042924872799375 L -114.0320857884862,51.042910671069706 L -114.03203797973069,51.04289554456993 L -114.03199162521692,51.04287996007493 L -114.03195177726596,51.042868040696355 L -114.03189672480305,51.04285336650455 L -114.03184599692705,51.042844173948644 L -114.03180034614341,51.04283362343825 L -114.03175687462723,51.04282352989545 L -114.03170978205561,51.0428106873586 L -114.03167355673405,51.04280151776148 L -114.03163369635668,51.042794165962704 L -114.03157863435176,51.04278405751053 L -114.03152282849628,51.04277258279313 L -114.03146775352407,51.04276430909739 L -114.03142427240114,51.04275878311844 L -114.03138441395183,51.04275417220472 L -114.0313307787893,51.04274727348744 L -114.03128294796716,51.042738996863505 L -114.03123294994938,51.04273118017467 L -114.03118149600097,51.04272336295386 L -114.03113511771659,51.04271417881746 L -114.03108439126842,51.04270453644361 L -114.03104525894024,51.042698101203555 L -114.03099163662272,51.04268890904541 L -114.03093801453748,51.04267789284505 L -114.0308836644012,51.04266779286662 L -114.0308343928736,51.04265860038555 L -114.03078004278242,51.0426485003589 L -114.03072861561739,51.042635648679116 L -114.03071194379092,51.04263060981895 L -114.03066485088299,51.042618683813934 L -114.0306133965504,51.04260994938989 L -114.03056267303387,51.04260442498703 L -114.03050903868224,51.04259614057389 L -114.03045758500575,51.04258832393315 L -114.030403964363,51.04257914049455 L -114.03035034320239,51.0425713144817 L -114.03029381326463,51.04256166518065 L -114.0302467100824,51.04255339783249 L -114.03019889159849,51.04254375432151 L -114.03014454207147,51.04253410348585 L -114.03010757812343,51.04252858432554 L -114.0300669938805,51.04252352456146 L -114.03001699516878,51.04251616493 L -114.02996553000688,51.042510172992046 L -114.02992856668938,51.04250556982911 L -114.02988870831115,51.042500500827515 L -114.02984015079028,51.04249451708052 L -114.02978869847021,51.04248624076928 L -114.02975174828029,51.0424798126305 L -114.02970970700093,51.0424729102172 L -114.02967275767335,51.04246556599902 L -114.02963000342744,51.04245867182878 L -114.02958435355399,51.04245040384514 L -114.0295291366575,51.04244204746484 L -114.02950213438206,51.04244928203226 L -114.02939156960794,51.04243056538843 L -114.02927878681733,51.04241980511275 L -114.02916722622801,51.04240462147266 L -114.02905394556889,51.04239564107214 L -114.02894090538575,51.042385761528536 L -114.02871582260403,51.04236247789136 L -114.02860725180116,51.04233667610269 L -114.02855225892229,51.04234659624014 L -114.0285145700221,51.04234427620033 L -114.0284580312458,51.042342402135695 L -114.02841670719248,51.042341898876266 L -114.02837683710028,51.04234049717451 L -114.02833624061724,51.042338169692336 L -114.02829855173518,51.04233585048184 L -114.02826012301023,51.04233627240892 L -114.02822170798792,51.04233577826584 L -114.02817312708592,51.0423352775713 L -114.02812166315056,51.04233294274498 L -114.02807236672386,51.04233060827438 L -114.028023085988,51.042328273779255 L -114.02798394234439,51.042325495440515 L -114.02793464735848,51.0423231609115 L -114.02788244528152,51.042324026502634 L -114.027830256037,51.042324892966356 L -114.02777659802229,51.042325759755876 L -114.02773671533518,51.042327090718764 L -114.02768813635454,51.04232978926959 L -114.02763158526756,51.042331106164696 L -114.02758519897293,51.04233060380796 L -114.02754387467347,51.042329651652096 L -114.0275025506471,51.04232915795817 L -114.02745831956733,51.04232957289605 L -114.02743657322229,51.042329550134774 L -114.02739306904604,51.04233178979393 L -114.02735464201265,51.04233267079844 L -114.02731404577328,51.042333083931965 L -114.02726258242208,51.04233166657939 L -114.02721618276017,51.04233024802512 L -114.02717848102175,51.04233022083936 L -114.02712700528117,51.04233199388761 L -114.02708351544219,51.04233195003505 L -114.02704508644285,51.042331913985045 L -114.02698853258177,51.04233094627747 L -114.02694722398003,51.04232999390705 L -114.02689720062652,51.042328117584965 L -114.02685804490592,51.042328997694916 L -114.02680875155517,51.04232940456041 L -114.02676960956379,51.042329368583395 L -114.02671813249506,51.04232885805871 L -114.02668115812145,51.042326538163294 L -114.02663331759649,51.0423264951363 L -114.02659488833899,51.042325999562784 L -114.0265513982491,51.04232550602542 L -114.02650064922648,51.04232637156825 L -114.02645061319573,51.04232723602873 L -114.02639987907348,51.04232672609465 L -114.02635347905722,51.04232714110435 L -114.02631650457081,51.04232710448681 L -114.02626284950074,51.04233071155148 L -114.0262062837157,51.042333852676855 L -114.02615625013007,51.04233655091709 L -114.02610768362419,51.04233879123059 L -114.02606345149363,51.042337371734504 L -114.02600836616365,51.04233595463729 L -114.02596776863274,51.04233408391031 L -114.02591701841958,51.04233540767657 L -114.025863361117,51.04233763912859 L -114.0258220371012,51.042337144840445 L -114.02576766460902,51.04233800187576 L -114.0257227188307,51.04233795783782 L -114.02567268185375,51.04233973891863 L -114.02562555557017,51.042341978715406 L -114.02559002141099,51.04234469241177 L -114.02553492282456,51.04234509012223 L -114.02548488633627,51.04234778897466 L -114.0254355912763,51.04234773678481 L -114.0253841260383,51.04234540075338 L -114.02533919027601,51.04233758943306 L -114.02529137178917,51.04232566052081 L -114.02523775079072,51.04231600814445 L -114.02518919455797,51.04231093851896 L -114.02514351987816,51.04231043593875 L -114.02509856060495,51.04231175720473 L -114.02505070687826,51.0423162893089 L -114.02499849177391,51.04232217977664 L -114.02494627424542,51.04232623631525 L -114.02489916122165,51.04232665000075 L -114.02484477422428,51.042327057122975 L -114.02480200997474,51.042326552891645 L -114.02476068504275,51.04232697518163 L -114.02470413123537,51.04232600726768 L -114.02465193998711,51.04232321348968 L -114.0246040970693,51.04232133482728 L -114.02457074411936,51.04232038893161 L -114.0245185528849,51.04231759419503 L -114.02446490644756,51.042316176068574 L -114.02442359552013,51.04231338890035 L -114.02438010189047,51.04231151822704 L -114.02434239992363,51.04231102266013 L -114.02430252831456,51.04230916109226 L -114.02424671629102,51.04230865038034 L -114.02419087741146,51.042311331902916 L -114.02414229681436,51.04231677174902 L -114.02409370170818,51.042321753101305 L -114.02404510825446,51.04232719201069 L -114.02398854255014,51.042333532409025 L -114.02393197872834,51.04234078883381 L -114.02388121559929,51.04234485358849 L -114.02382901363347,51.042348909624714 L -114.02378113262844,51.04235618308432 L -114.02373834262184,51.04236390497726 L -114.02369117833689,51.04237574414177 L -114.02364402755782,51.04238895062348 L -114.02359104792768,51.04240900844224 L -114.02354823140823,51.04242084757026 L -114.02350688317922,51.042431778423925 L -114.02345173339472,51.042446810454024 L -114.02340240024441,51.0424591003228 L -114.02335017184097,51.04247047379604 L -114.0233066562869,51.04247911262888 L -114.02326820157256,51.04248775942782 L -114.02321162427559,51.042500040769205 L -114.02315576182943,51.042513239793685 L -114.02309988480555,51.04252873117716 L -114.02305852324807,51.042541944368686 L -114.02301788937523,51.042556066264645 L -114.02296200206007,51.04257978319301 L -114.02290611333136,51.04260074923548 L -114.0228632993854,51.04261853032751 L -114.02281902999191,51.04263448677147 L -114.02277547356294,51.042650434069955 L -114.02272976362497,51.042665931385166 L -114.0226818712059,51.042680054575364 L -114.02263397831086,51.04269326079286 L -114.02260496342,51.04270191453452 L -114.02255634388335,51.04271648640166 L -114.02250772454316,51.04273152661372 L -114.02245983264963,51.04274701615257 L -114.02240975982134,51.04276433100639 L -114.02236188080526,51.04277708672374 L -114.022308912241,51.04279256818209 L -114.02226609548069,51.04280532379273 L -114.02221458181864,51.042821729974925 L -114.02216740317417,51.042838136211195 L -114.0221209672265,51.042854083811264 L -114.02206580341134,51.04287459982688 L -114.02202226097556,51.0428910044189 L -114.02196565814475,51.04290832031222 L -114.02192285436159,51.04291878341174 L -114.02187062400327,51.04292787193134 L -114.02182637841348,51.042935143909034 L -114.02177344898547,51.04294057459217 L -114.02172412549355,51.042945095718835 L -114.02167481831623,51.042950984160505 L -114.02161823833478,51.04295961489726 L -114.02156964398418,51.04296825402187 L -114.02153117554813,51.04297963313072 L -114.02147529868846,51.04299786470664 L -114.02142666760341,51.04301975464911 L -114.02138887841551,51.04305399448463 L -114.02134166297213,51.043084567318154 L -114.02128722827787,51.04310736622517 L -114.02123933391667,51.043119196440905 L -114.02118275531797,51.043131485788734 L -114.02113196671895,51.043144682924705 L -114.02110220994709,51.04315379490325 L -114.02105142254712,51.04316974196408 L -114.02103836332827,51.043173385158426 L -114.02098538025194,51.043193441793825 L -114.02093964210061,51.04321212976861 L -114.02088519444445,51.04323858731252 L -114.0208343812238,51.04326092598531 L -114.02079156567488,51.04327825682982 L -114.02075453850398,51.04329284476159 L -114.02070084297236,51.043311525964604 L -114.02065367694775,51.04332656424742 L -114.02060214726775,51.043341594290716 L -114.02056369214365,51.043352065114775 L -114.02052814628676,51.04336299389173 L -114.02048605578217,51.04337574872142 L -114.02044541979971,51.04338851137227 L -114.02040405652033,51.043401266045166 L -114.02035108699292,51.04341766266866 L -114.02030899639007,51.04343041743447 L -114.02026690556413,51.04344271370867 L -114.02021684463377,51.04345820180356 L -114.02017040458415,51.043470956372644 L -114.02011744919535,51.04348415344089 L -114.02006665852916,51.043494158757504 L -114.02001298687536,51.04350324669345 L -114.01995784879794,51.0435146092581 L -114.01992013335332,51.04352142991137 L -114.01986646085493,51.0435286838742 L -114.01982583687597,51.043536871431094 L -114.01978594035094,51.043545516428196 L -114.01974531718439,51.043552328527475 L -114.01969599517092,51.0435623334348 L -114.01964737304887,51.043575079173806 L -114.01959876497078,51.04358737540343 L -114.01954435311939,51.04360011397951 L -114.0195051702684,51.04361058457647 L -114.01945800316878,51.04362470542321 L -114.01941664064182,51.04363700037053 L -114.01938109372672,51.043646562358546 L -114.01933030405615,51.0436597677003 L -114.01928169523451,51.043670688368614 L -114.01922729594389,51.043679767073755 L -114.01917435024465,51.043686572011204 L -114.01912213247621,51.04369154200064 L -114.01907135506765,51.043700179543556 L -114.01902710886343,51.04370881690027 L -114.01897413861815,51.04372201345238 L -114.01892407583851,51.043734759123986 L -114.01886967659281,51.043744305128776 L -114.01882833756417,51.04374837515559 L -114.0187877252519,51.04375107771234 L -114.0187340670769,51.04375604865888 L -114.01868474278815,51.043761476465534 L -114.01863616108716,51.04376599706871 L -114.01859628845702,51.04376413265581 L -114.0185455384418,51.04376681876143 L -114.01849692914128,51.04377728152575 L -114.0184497608409,51.04378957704923 L -114.01839752972828,51.04380094830696 L -114.01834820643562,51.043809117840404 L -114.01829891001626,51.043809530106905 L -114.01825035243839,51.04380308217077 L -114.01819818485622,51.04379114204877 L -114.0181532608449,51.04378104457319 L -114.01810544307065,51.04377002068701 L -114.01805109444585,51.04375991564194 L -114.01799891465039,51.043753000694515 L -114.01794526764816,51.043750204146434 L -114.01789670857872,51.043743297587085 L -114.01785178753089,51.04373319909614 L -114.01782426141968,51.043723575291324 L -114.01778227257883,51.04370295923577 L -114.017735206932,51.04368188545906 L -114.01769391971361,51.04366859500001 L -114.01764973697856,51.043653462068015 L -114.01759758151424,51.043638779806706 L -114.01756498005577,51.04363234716164 L -114.01752221136421,51.0436268230964 L -114.0174700434275,51.043616707565285 L -114.01742003087551,51.04361208351866 L -114.01736929174524,51.04360929436353 L -114.01731781210509,51.04360923727648 L -114.01727865386323,51.04361056276504 L -114.01723443145298,51.0436109729334 L -114.0171952727017,51.0436109328534 L -114.01715467366168,51.04361089207269 L -114.01711552757588,51.04361039348763 L -114.01706042582353,51.04361033771657 L -114.01701329456422,51.04360753799147 L -114.01696909926318,51.04360018002555 L -114.0169212805333,51.043589164644445 L -114.01688070637752,51.04357906515061 L -114.01684013257146,51.04356988169662 L -114.01678723625444,51.04355611613319 L -114.01673797683065,51.04354372455552 L -114.01669087220868,51.04353544185721 L -114.01663650995053,51.04352944266686 L -114.0165908472844,51.04352574448782 L -114.01654082147066,51.043523403459496 L -114.01649370491702,51.04352152137471 L -114.01644369337298,51.043519180302795 L -114.0163893311658,51.043513180997486 L -114.01633862935743,51.04349438966129 L -114.0162850326002,51.04347513933097 L -114.01626619337421,51.04347100577729 L -114.01621184406979,51.04346088998791 L -114.01616475341308,51.04345124872653 L -114.01611040399486,51.04344067441346 L -114.01606837591879,51.04343149089177 L -114.01601837670438,51.043423208320185 L -114.01596765023622,51.043414924927596 L -114.01591837754933,51.043404367810965 L -114.01586910472483,51.043393342308335 L -114.01582419635616,51.04338050116658 L -114.01577276780338,51.04336215916967 L -114.01571845922867,51.043341074769174 L -114.01567426299978,51.04332960800442 L -114.01561920051752,51.04331811660535 L -114.01557355071236,51.04330938377527 L -114.01551703358955,51.04329744213609 L -114.01546995506574,51.04328048294835 L -114.01542434513195,51.04325849918467 L -114.01537147644335,51.043239698724335 L -114.01532367091411,51.04322319804962 L -114.01527151764482,51.04320714830921 L -114.01522150500125,51.043200230939014 L -114.0151729465309,51.04319652359316 L -114.01512289634577,51.04320561690453 L -114.01506992256336,51.04321835141429 L -114.01501914393371,51.04322835273835 L -114.01496691133345,51.04324018004184 L -114.01491830148252,51.04324972256785 L -114.01487696313471,51.0432556242044 L -114.01482402836179,51.04325693264395 L -114.01479067380436,51.04325690001177 L -114.01475078738382,51.04325914259764 L -114.01470077563239,51.04325497586358 L -114.01464642735498,51.043246233876346 L -114.01459277985425,51.043243883478176 L -114.01454491073969,51.043251152252296 L -114.01450142989013,51.04324607755573 L -114.0144550532369,51.04323779296663 L -114.01440650764177,51.043224951729606 L -114.01435366495946,51.04319655875784 L -114.01432693382097,51.04316727258038 L -114.01430164257208,51.043136628770405 L -114.01425315054075,51.04310732725699 L -114.01420896803434,51.043092193022936 L -114.01416117833689,51.04307431733981 L -114.01411699533692,51.04305735725561 L -114.01406485453569,51.04303810662892 L -114.0140134552125,51.04301382972873 L -114.01397947834197,51.0429781445465 L -114.01395782388063,51.04294795061188 L -114.01392528846449,51.04291592316488 L -114.01387608178985,51.04288433818617 L -114.01383557564796,51.04285412758656 L -114.01379506861093,51.042820725616565 L -114.01376253407268,51.04279098151644 L -114.01372202835694,51.04276168783006 L -114.01367209574447,51.04272872742024 L -114.0136221773284,51.0426953085107 L -114.01357874826118,51.04267012342433 L -114.01354905494533,51.04265638066452 L -114.01349622872031,51.0426266118708 L -114.01344193378858,51.0425968522117 L -114.01338763789143,51.04256844907856 L -114.0133326175427,51.04254462267757 L -114.01327615490672,51.04251348775859 L -114.01322910508163,51.04249149341027 L -114.01317477003158,51.042474984502675 L -114.01312984890048,51.04246670911133 L -114.01307768439307,51.042455682755026 L -114.01302912714316,51.04244785721855 L -114.01297405144251,51.042439114533565 L -114.01291753785296,51.042428538974235 L -114.01286608513558,51.04241797092133 L -114.01281028379792,51.04240968671555 L -114.01275664931387,51.0424041450153 L -114.0127175189762,51.04239998613263 L -114.01267693351136,51.04239354310257 L -114.01262548150832,51.04238525923568 L -114.01258272831555,51.04237790035287 L -114.0125312764701,51.0423700740221 L -114.01249360032355,51.042364548468456 L -114.01244140797345,51.04236038189912 L -114.01238921611923,51.04235803932397 L -114.01234386920973,51.042356407090956 L -114.01229896455065,51.042355493972764 L -114.01225045119456,51.04235640523322 L -114.01221701323244,51.042356677526364 L -114.0121946808544,51.042356858754374 L -114.01217802505394,51.04235594353787 L -114.01213746835853,51.04235547939134 L -114.01208098502352,51.04235593293228 L -114.01204188426449,51.04235546860209 L -114.01198540057601,51.04235455565688 L -114.01193252358344,51.042349516027016 L -114.01188111525671,51.04234402763604 L -114.0118412847819,51.04233945500324 L -114.01178479995583,51.04233396618519 L -114.01173337878905,51.042333961469986 L -114.01167906155358,51.0423344145992 L -114.01162764004197,51.04233303440781 L -114.01157115547741,51.042328462439585 L -114.01152336922542,51.04232296364394 L -114.01147411309094,51.04231290807543 L -114.01144080053633,51.04230695923631 L -114.01139301309175,51.042296445013235 L -114.01134449684979,51.04227952115898 L -114.01128946297776,51.04225300496603 L -114.01123949020004,51.042221454906716 L -114.01120038305311,51.042188079767485 L -114.01115766822383,51.04215470406049 L -114.01112507913523,51.04212635263728 L -114.01110191604542,51.04209891816209 L -114.01108235830871,51.04206737503041 L -114.01107512347942,51.04203399682193 L -114.01106860032547,51.04200702912701 L -114.01106498846973,51.041983710090435 L -114.01105992005286,51.041951707105206 L -114.01105413975563,51.041918337746765 L -114.01104472081201,51.04188679454748 L -114.01102734746964,51.04185387576923 L -114.01100634997741,51.04182369919946 L -114.01097013956812,51.04179672350232 L -114.01094335379824,51.041765181024005 L -114.01092308464047,51.04173317046415 L -114.01091366703584,51.04170071839071 L -114.01090859689751,51.041666881490976 L -114.01090136040123,51.04163167835276 L -114.01089123167023,51.0416069934768 L -114.01087312801964,51.04157224982527 L -114.01085357044583,51.04153978969921 L -114.01083184707224,51.04150823773399 L -114.01081303375939,51.04148127026179 L -114.01079709820895,51.04144880979062 L -114.0107920300962,51.04142320748439 L -114.0107826261606,51.04138754606082 L -114.01076958657373,51.04135416836487 L -114.01075148290045,51.041318507739675 L -114.01073556334637,51.041286964211054 L -114.01071818833397,51.0412572457305 L -114.010695738792,51.04122936161834 L -114.01067039179684,51.0411955265594 L -114.01064649983607,51.041163983745584 L -114.01061898772741,51.041133806796964 L -114.01059002066388,51.04110134747891 L -114.01056756963736,51.04107253649946 L -114.0105393290783,51.04104281897316 L -114.0105226833818,51.041021334997254 L -114.0104879265903,51.040986583791025 L -114.01046258182106,51.040955040169806 L -114.01044302633602,51.0409294391423 L -114.01042492430969,51.04089926220457 L -114.0104053829151,51.04086634352164 L -114.01039163087671,51.04083342432066 L -114.01038004568125,51.040804163749286 L -114.01036627972677,51.040772619976316 L -114.01035615044839,51.040749759967454 L -114.01034311104276,51.040715015779895 L -114.01033949670132,51.04068484743353 L -114.01033950546748,51.04065376091405 L -114.01033951372338,51.0406203820109 L -114.01034312898676,51.040590671501086 L -114.01036052040226,51.040561867734304 L -114.01039600628388,51.040530329475885 L -114.01043800925834,51.04050793408885 L -114.01048434816046,51.040490562663194 L -114.01053576529158,51.04047548404407 L -114.01058501486891,51.040459947121875 L -114.01062991389549,51.04044440068593 L -114.01067481205324,51.04042520439847 L -114.01072043924756,51.04040784283269 L -114.01077185493678,51.04038727137858 L -114.01082544986774,51.04036259048988 L -114.01088048431883,51.04032921726302 L -114.01092321273201,51.04029493719706 L -114.01095652984175,51.04026614084036 L -114.01097390908916,51.040248313454406 L -114.01100649947179,51.04021585832724 L -114.01103546784118,51.040188887274326 L -114.01108688042162,51.04015688972143 L -114.0111230919543,51.040122150823684 L -114.01115061880989,51.04009014652339 L -114.01116509945402,51.04005631674824 L -114.01118030828646,51.040026605101524 L -114.01120565339461,51.03999460908723 L -114.01126141468731,51.03996261103943 L -114.01128967021864,51.039931523588834 L -114.01133094645355,51.03991506926826 L -114.01138671036718,51.03989450521103 L -114.01144319908028,51.03986433192241 L -114.01148157732126,51.03983461886365 L -114.0115061956492,51.0397998809836 L -114.01152285661355,51.039767876764095 L -114.01153517064039,51.03973862293286 L -114.01157138173818,51.03970479275656 L -114.01161990299929,51.03969519678804 L -114.01207327579652,51.039408454505335 L -114.01209005114038,51.03937419376589 L -114.01210755259956,51.03934130837912 L -114.01213011739121,51.03930842246412 L -114.01215269605241,51.039274170102395 L -114.01217310553486,51.03923854163264 L -114.01219710991941,51.03920932426772 L -114.01222184350267,51.03918237942818 L -114.01225310692207,51.03915271180505 L -114.01228365544512,51.039121208543285 L -114.01230693440526,51.03909381614904 L -114.01232949835881,51.03906412964335 L -114.0123556849792,51.03903261873156 L -114.01238986839162,51.038997466120804 L -114.01241678152746,51.03896368161221 L -114.01245966453315,51.038929903486554 L -114.01251117794291,51.03891579397716 L -114.01255832848456,51.038903043263915 L -114.0126055069006,51.03888801722489 L -114.01265121792544,51.038872523859034 L -114.01269768196356,51.038852464503414 L -114.01274341856008,51.038826471079695 L -114.01280006078422,51.03879727699483 L -114.01284507107967,51.038774933446014 L -114.01289156015616,51.03874298957083 L -114.01292644509205,51.038715154374266 L -114.0129584201497,51.03868867694094 L -114.01299113626509,51.0386558077095 L -114.01302313835377,51.038624304989156 L -114.01304932489965,51.038595086303935 L -114.01308057196626,51.03856632552326 L -114.01311691026953,51.03853573924509 L -114.01315906388322,51.03850242840879 L -114.01320484031278,51.03846820109303 L -114.01324986084045,51.03843853973524 L -114.01330289468154,51.03840386207057 L -114.01334793011281,51.03837191727829 L -114.01338499359242,51.03834042286881 L -114.01341117871935,51.03831257054217 L -114.01343521007136,51.038277409796 L -114.0134534105592,51.038250466341275 L -114.01347598773037,51.0382162128188 L -114.01349636960593,51.03818881062865 L -114.01352111455519,51.038156382663594 L -114.01354366302193,51.03812670580917 L -114.0135647870242,51.038097020125804 L -114.01358950340614,51.03806962550643 L -114.01362876149678,51.03803538979007 L -114.01366582553884,51.03800251985892 L -114.01369057081111,51.037971925764616 L -114.0137007995589,51.037941772966 L -114.01370087729188,51.03791526220298 L -114.01370091696825,51.037904753187995 L -114.01370172223544,51.03787459340249 L -114.0137018261941,51.03784031549746 L -114.01370482686306,51.037808780023425 L -114.01370563137357,51.03778090273347 L -114.01371004490049,51.03775851775361 L -114.01371520007443,51.037732015383725 L -114.01372324855706,51.03770643052664 L -114.01373277836294,51.03767078507234 L -114.01374013944718,51.03763514976074 L -114.01373442762879,51.037601780501994 L -114.01373016942716,51.03757069446706 L -114.01373244274441,51.037538699700335 L -114.01374415275785,51.03750352235359 L -114.01376526012373,51.03747201171461 L -114.01378374087388,51.03744946595464 L -114.01379145899769,51.037440050084854 L -114.0138162032086,51.03740717256602 L -114.01384167326935,51.03737474444303 L -114.01386350809727,51.03734460913041 L -114.01387881385638,51.03731399813259 L -114.01389341883038,51.03728111191159 L -114.01390220794337,51.037248667776986 L -114.01391173636951,51.03721394824913 L -114.01391764330616,51.03717967953783 L -114.01392278458609,51.03715500207597 L -114.01392796405914,51.03711981559752 L -114.01393385882419,51.03708783028152 L -114.0139382851984,51.03706132798562 L -114.01394636036474,51.03702568358237 L -114.01395081291014,51.03699141414284 L -114.01395235887689,51.0369594194555 L -114.0139502814148,51.03692605875924 L -114.01394675057531,51.036895889595755 L -114.01394394778757,51.03686389632585 L -114.01394331123429,51.03683326833957 L -114.01394628453137,51.03680630773856 L -114.01395002373395,51.036770663850824 L -114.01395808540879,51.03673776940972 L -114.01396253805306,51.03670394945532 L -114.01396481158167,51.03667333100931 L -114.01396852361584,51.03664225301524 L -114.01397004181709,51.036617575982 L -114.01397084798765,51.0365910750144 L -114.01397022471622,51.036557246675756 L -114.01397177065793,51.03652526097549 L -114.01397113450457,51.03649600841866 L -114.01397411880897,51.03646310559199 L -114.0139785729793,51.03642974501123 L -114.01398446647201,51.03639867574414 L -114.01399687717766,51.03636714811815 L -114.01401146861598,51.03633792070529 L -114.0140246048829,51.03630593451198 L -114.01403122608646,51.03627212328197 L -114.01402913571978,51.03624333027477 L -114.01402416583255,51.036211785851656 L -114.01401699893235,51.03618070016871 L -114.01401344294663,51.036156931705804 L -114.0140091727777,51.036133621805384 L -114.01400056644069,51.03609978543113 L -114.01399558118335,51.036069166951734 L -114.01398986904744,51.03603944753363 L -114.01398053669034,51.03600927906089 L -114.01397411071186,51.0359763593773 L -114.01397058066863,51.03594390771283 L -114.01396704989072,51.03591373854486 L -114.01396490763068,51.03590185435566 L -114.01396355905888,51.0358694015309 L -114.01396148150016,51.03583558325049 L -114.01396085994712,51.03580267186139 L -114.01395731561702,51.03577479507948 L -114.01395232986968,51.03574233369846 L -114.01394879972158,51.03570942265596 L -114.01394817845451,51.035677428220254 L -114.01394680256924,51.03565366938179 L -114.01394108955537,51.035620749609265 L -114.01393466549962,51.03558921434218 L -114.01393110844784,51.03556635383896 L -114.01392827800059,51.03554166833022 L -114.01392185396448,51.03551013306195 L -114.01391830885635,51.035479506313855 L -114.01391622056754,51.03545253732024 L -114.01391196230425,51.03542099280331 L -114.01390699217559,51.035388081929135 L -114.01390200678205,51.035356546487755 L -114.01389992983684,51.035324552223 L -114.01390146193744,51.03529393385916 L -114.01390012672799,51.03525828067849 L -114.01389151961813,51.035225819722655 L -114.01387857736098,51.035190617407764 L -114.01386562338075,51.03515906493029 L -114.01385410944627,51.03512752127026 L -114.01384838489354,51.03510328558819 L -114.01384050539924,51.03507220087189 L -114.0138290189297,51.0350369983782 L -114.01381460891452,51.03500407962481 L -114.0137994877337,51.03497206891799 L -114.0137800032625,51.0349432500842 L -114.01375761155484,51.034913981202905 L -114.01375039422308,51.034903913534166 L -114.01372728980604,51.03487509511716 L -114.01370779143319,51.03484719322682 L -114.01368904712275,51.034813816488 L -114.01366883734572,51.03478591467419 L -114.01363486715894,51.034751594883545 L -114.01360958019208,51.03472323517424 L -114.01358791623254,51.03469533351533 L -114.01356770407355,51.034663772856064 L -114.0135496890295,51.034632220928195 L -114.01353311205924,51.034598834922065 L -114.0135186786248,51.03457734210315 L -114.01349485964671,51.03454166454282 L -114.01347971048955,51.03451514653188 L -114.01346604253585,51.03448313561164 L -114.01344511831086,51.0344488331386 L -114.01342492177704,51.03441636448685 L -114.01339674032941,51.03438617115353 L -114.01335696838228,51.03435367686374 L -114.0133034235477,51.03432025908363 L -114.01325059127603,51.03429049013725 L -114.013197773849,51.0342575307031 L -114.01315583515338,51.034225486076295 L -114.0131160620894,51.03419300159247 L -114.01307989903609,51.03416553207221 L -114.01303433823702,51.03413029734451 L -114.01299021788257,51.03409642888067 L -114.01295841605261,51.03406805986256 L -114.01293167704479,51.034039691174556 L -114.01290061502124,51.03400538073298 L -114.01287314946927,51.03397884602041 L -114.0128297559926,51.03394314260715 L -114.01278272885737,51.03391429965312 L -114.01273712733887,51.033890032307355 L -114.01268214324776,51.03385569654338 L -114.01265105643265,51.033828694703836 L -114.01261926868885,51.03379300883307 L -114.01259182840676,51.03375870600767 L -114.0125535110585,51.03372347030945 L -114.01250286260836,51.03369325219892 L -114.01246527119739,51.03365847487092 L -114.01243563875609,51.03363102243157 L -114.01239515465818,51.03359624538845 L -114.01235900517487,51.033562843304644 L -114.01231271887781,51.03352942339937 L -114.01226928616116,51.03350927294664 L -114.01222007918422,51.03348316287706 L -114.01217595967952,51.033447926760985 L -114.01213693028481,51.03341360795307 L -114.01208770946491,51.03338841478331 L -114.01203846183732,51.033375105146916 L -114.01198992756792,51.0333636293257 L -114.01193850043,51.03335168631281 L -114.01190084571053,51.03333975985511 L -114.01184583516252,51.03331410779638 L -114.0118023622846,51.03329703076928 L -114.01175421300603,51.03327955864734 L -114.01170987150903,51.03327210070647 L -114.01166253478158,51.033259653735996 L -114.01161594098458,51.03324764717029 L -114.01156926053201,51.033231073801105 L -114.01152189491529,51.033216793766215 L -114.01146775526608,51.033188857147415 L -114.01141649515637,51.03315906923242 L -114.01136012933202,51.03312795130804 L -114.01131773968203,51.03310815909 L -114.01126146206038,51.0330816079028 L -114.01121539340886,51.033058632731056 L -114.01116052691172,51.03303024745032 L -114.01111742326842,51.03301091370483 L -114.01106331294189,51.03298434423606 L -114.01102309050252,51.0329640752487 L -114.01097553739389,51.032938826613865 L -114.01093096676125,51.03291904344947 L -114.01088934778791,51.03290106693306 L -114.0108433647906,51.03288312676577 L -114.01078778609175,51.03285565832995 L -114.01073587191605,51.03282998748127 L -114.01068240100062,51.03279839160651 L -114.01063416586307,51.03277543528106 L -114.01059907722288,51.032759238037244 L -114.01055310883721,51.032741748140566 L -114.01050496050007,51.0327238170249 L -114.01044875611989,51.03270183223188 L -114.01042832412128,51.03269376036084 L -114.01037863511596,51.03267127152631 L -114.01033483394782,51.03265376247252 L -114.01028824110338,51.03264176436595 L -114.01024163249735,51.03262929877502 L -114.0101927863114,51.03261365997828 L -114.0101497425074,51.03259705875384 L -114.01010666859723,51.03257954955118 L -114.0100556122979,51.032562095857166 L -114.00999873884409,51.032542860869775 L -114.0099418783649,51.03252407624015 L -114.00989157809346,51.032507987953316 L -114.00983550260061,51.03249285304467 L -114.0097939711279,51.03248035088851 L -114.00974086189059,51.03246885653538 L -114.00970591798254,51.032460418065504 L -114.00966151990679,51.032449776978936 L -114.00960621651453,51.03243783325828 L -114.00954947169089,51.032425440141644 L -114.00949632085715,51.03241211177123 L -114.00945552966454,51.032400526389175 L -114.00941476880135,51.03239076591011 L -114.00937109804623,51.03238056515234 L -114.00932815583464,51.032370365219045 L -114.00927575806902,51.03235794375407 L -114.00922263484102,51.03234643927756 L -114.00918626277011,51.03233893480011 L -114.00914919391178,51.03233325528558 L -114.00910925828929,51.03232896939437 L -114.00906279448569,51.03232472894471 L -114.00901048344667,51.03231779110287 L -114.00895523499463,51.03230812956781 L -114.0089071584571,51.03229476458119 L -114.00888013814415,51.03228307906047 L -114.00883123363185,51.03226377996998 L -114.00877639553643,51.03223721848373 L -114.00872965805739,51.03221744273099 L -114.00868444686154,51.03220177606188 L -114.00864502251471,51.03218607208937 L -114.00859829939999,51.0321662971818 L -114.00855521070662,51.032148328030786 L -114.00850633532045,51.032130863610256 L -114.00845971319919,51.032117029967225 L -114.0084050483866,51.03210050984723 L -114.00834804513147,51.03207396539554 L -114.00830204808736,51.032055106373036 L -114.00825833463446,51.032042163327354 L -114.00820217246334,51.03202245994661 L -114.0081576599729,51.032005417592 L -114.00810886979785,51.031992518894334 L -114.00805491927926,51.031974623128434 L -114.00800829744914,51.03196078930496 L -114.00796099044918,51.03195016485128 L -114.0079144825444,51.03194364055059 L -114.00785781075359,51.031935354923625 L -114.00782001386365,51.03192968312686 L -114.007764067849,51.031921855883276 L -114.00771171565796,51.03191217558774 L -114.00766298325779,51.03190246896117 L -114.00760765079256,51.03188869847676 L -114.00755743544852,51.03187717597256 L -114.00750727902452,51.031868394418666 L -114.00745633663684,51.03185687191769 L -114.00742072120123,51.03185164124936 L -114.00737053610057,51.031841493196104 L -114.00731813959764,51.0318299797163 L -114.00727227402068,51.031817970471366 L -114.00723001397245,51.0318059349151 L -114.00718128320996,51.03179622808736 L -114.00713540337462,51.03178376031212 L -114.00708876632746,51.03176992702127 L -114.00703434670991,51.03176619776397 L -114.0069922318623,51.03176147078219 L -114.00693916589178,51.031752707137855 L -114.00688684142133,51.03174485228976 L -114.00683376252525,51.03173518063322 L -114.00678793904451,51.031726821934306 L -114.00675670212405,51.03172247180494 L -114.00670943875124,51.031714122148216 L -114.00666364531943,51.031706229967 L -114.00660986670806,51.03169792559009 L -114.00655389253357,51.03168917991466 L -114.00650446365285,51.031680848275926 L -114.00645289512721,51.031674358734904 L -114.00642379657478,51.03166862487535 L -114.00637289775884,51.03165939338742 L -114.00632563588238,51.03165058509793 L -114.00627837266123,51.03164224335756 L -114.00622318315705,51.031636689742896 L -114.00617094650988,51.031633400465154 L -114.0061317245332,51.031628655040876 L -114.00607579354066,51.03162173495299 L -114.00602712071326,51.03161568557135 L -114.00597411247026,51.03160966425936 L -114.00593051507032,51.03160402900554 L -114.00588618905375,51.03159748490809 L -114.00583609067587,51.03159190388481 L -114.00578517780293,51.03158266315174 L -114.00576989424073,51.031578663467045 L -114.00572760606117,51.031564802448486 L -114.00567367132463,51.03154782163718 L -114.00562418533828,51.03153628837747 L -114.00557325814813,51.03152568200915 L -114.00551804002897,51.0315173951777 L -114.00546715740158,51.03150952973684 L -114.00543480612163,51.03148280380959 L -114.00547883058468,51.03147244645685 L -114.00551820533435,51.03144476605198 L -114.00548213257736,51.031413499588616 L -114.0054289681723,51.031398344446735 L -114.0053851973688,51.031382666543486 L -114.00532955045887,51.031350627814206 L -114.00527756780507,51.03132084622 L -114.00523088869737,51.03130427031365 L -114.00518932943443,51.03129039917828 L -114.00513975774872,51.03127385033312 L -114.00509526145441,51.0312577138754 L -114.00505146218471,51.03124021182695 L -114.00499886754098,51.03121727942823 L -114.00494396252844,51.03118614844784 L -114.00489125322724,51.031156375701464 L -114.00484063916642,51.03112155869335 L -114.00479723883942,51.03108577137275 L -114.0047611237969,51.03105177180137 L -114.00471779520328,51.03101918480046 L -114.00468029781389,51.03098930346595 L -114.00463691341672,51.030953524175146 L -114.00459860302087,51.03091861757365 L -114.00457993831678,51.03088723417483 L -114.00457372024717,51.030863977923524 L -114.00455803703308,51.030837143220005 L -114.00453207291822,51.03080352164871 L -114.00451060176557,51.030777640076884 L -114.00448977025987,51.03074672421379 L -114.00446605918219,51.03071766034636 L -114.00443139885438,51.03068410201231 L -114.00438440675136,51.03064925769715 L -114.00433738754636,51.030613497307876 L -114.00430431047025,51.03058678008019 L -114.00426528785567,51.03055233996175 L -114.00423430620155,51.030521954817495 L -114.00419164965233,51.0304861672414 L -114.00417747989381,51.03048097167031 L -114.00414641165078,51.030469580959064 L -114.0040945883246,51.030448482932 L -114.00405714906002,51.03042133427817 L -114.00403415118971,51.030391802829485 L -114.00400389820737,51.03036050064309 L -114.00397067827724,51.030326015277204 L -114.00394829298246,51.0302900920742 L -114.00392894629188,51.03026099288798 L -114.00391240631924,51.03022776640772 L -114.00390312417942,51.03019448574422 L -114.00388748311249,51.030169935243116 L -114.00386740952267,51.03014175212638 L -114.00384070486392,51.03010676397912 L -114.00382208545498,51.03007858080645 L -114.00381445663035,51.030056708979984 L -114.0038110756835,51.03002932539528 L -114.00380920757443,51.03000512503354 L -114.00379775870265,51.029972779365615 L -114.00379152674185,51.029947698149 L -114.00377788234995,51.02991399509688 L -114.0037700244382,51.0298793308515 L -114.0037674579217,51.02985651403448 L -114.00375463944182,51.029828286612904 L -114.00374250650849,51.02979776588105 L -114.00372231714485,51.02976273254707 L -114.00370657751478,51.029732698271786 L -114.00369943245094,51.02969757462142 L -114.00369821993563,51.029670182872266 L -114.00369399882699,51.029635499626714 L -114.00369703412451,51.02960212955487 L -114.00370078214402,51.029567851494775 L -114.00370240488549,51.029537232332665 L -114.00369536150818,51.0295075924292 L -114.00367885051833,51.02947481629747 L -114.00365588340247,51.02944666020133 L -114.00363220209253,51.02941850412275 L -114.0036142944198,51.02938985342418 L -114.0035970579394,51.02935754477001 L -114.00358421247358,51.02932749150854 L -114.00357129400298,51.02929332093909 L -114.00355268798313,51.02926604658361 L -114.00352601414099,51.02923289136967 L -114.00350093618607,51.02920794554783 L -114.00349272378358,51.02919429844335 L -114.00347692723155,51.02916106288339 L -114.00345534147726,51.029128781305666 L -114.00342796938311,51.029097460898676 L -114.00339848627311,51.029069340900094 L -114.00336017829508,51.02903352501678 L -114.0033495142743,51.029004371539806 L -114.00334841506398,51.02898336250827 L -114.0033551430778,51.02895363318749 L -114.00336981141238,51.02892200679863 L -114.00337863470119,51.02888815111703 L -114.0033823828973,51.02885386317424 L -114.00338263757256,51.028827370351124 L -114.0033690796384,51.028797775561536 L -114.00334033811798,51.02877057337973 L -114.00331375060377,51.02874243529588 L -114.0032878458088,51.028712013788166 L -114.00324750018902,51.02868397406361 L -114.00322610090102,51.02866265994034 L -114.0032118447121,51.02863489007181 L -114.00320254907398,51.028600702277316 L -114.00319472045082,51.02856787099632 L -114.00319137003974,51.028542313205655 L -114.00318499550978,51.0285094728942 L -114.00317652714847,51.02848120932502 L -114.00317015263738,51.028448369012395 L -114.00316312405147,51.02841918844755 L -114.00315475591194,51.02839685811414 L -114.00314342088153,51.0283699871329 L -114.00312400400176,51.02833769554249 L -114.00310598255635,51.0283021954668 L -114.00309309475062,51.028269400270666 L -114.00308379784678,51.02823520257593 L -114.0030674036933,51.02820974401107 L -114.00305462903903,51.02818424849123 L -114.00304553393241,51.02816147766988 L -114.00303415613682,51.02813278175711 L -114.00302484638483,51.02809721851284 L -114.00301124603587,51.02806624824602 L -114.00299554892807,51.02803849636489 L -114.00297618806161,51.02800894752209 L -114.00296274510566,51.027986202874594 L -114.00295359285751,51.02796023169259 L -114.00294512331139,51.02793196720503 L -114.00293944892435,51.027898210802626 L -114.00293817965031,51.027867151216824 L -114.00293324516193,51.0278338433841 L -114.00292765661582,51.02780465377611 L -114.0029227235672,51.02777134594256 L -114.00291493816215,51.02774034045715 L -114.00291013388527,51.027714333203086 L -114.00290664062433,51.02768055786498 L -114.00290608269371,51.027649048772005 L -114.00291064400905,51.027619778001565 L -114.00292457088959,51.02758725270384 L -114.00295148419951,51.02755189530275 L -114.00296766366601,51.02752391876099 L -114.0029721390775,51.0274896317038 L -114.00297461798459,51.02746586271599 L -114.00297562992907,51.02744072732187 L -114.00297875145358,51.02741239062045 L -114.00298107295892,51.027379488040154 L -114.00298413721998,51.02734749340641 L -114.00298571881022,51.02731367388902 L -114.00298732902719,51.0272816972715 L -114.002993956885,51.02724647432297 L -114.00301221716015,51.02721346345457 L -114.00303268566412,51.027182260366594 L -114.00304263652582,51.0271712296722 L -114.0030710750549,51.0271395130542 L -114.0030995708095,51.02711144627029 L -114.0031294776412,51.02708108795159 L -114.00316364642615,51.027046134843246 L -114.00318926258389,51.02701901293875 L -114.00322197721862,51.026983610364596 L -114.00324682333694,51.0269537456925 L -114.0032759743518,51.02692202990263 L -114.00329722823551,51.026894017210815 L -114.00332053437644,51.02685959475734 L -114.00336711946517,51.02683003599012 L -114.00341870913012,51.026795874300376 L -114.00346747515782,51.026766755927326 L -114.00351250580586,51.026731271996375 L -114.0035474439942,51.026698594059106 L -114.00357877570536,51.02666731772537 L -114.00361159000758,51.0266373996902 L -114.00366173816427,51.02660415399322 L -114.00371710568021,51.026579108568754 L -114.00377094608727,51.026549953048395 L -114.00382033844411,51.02651580024037 L -114.0038574572724,51.02648311314812 L -114.0038996079508,51.02644901358453 L -114.00393391886064,51.02642136981739 L -114.00396674709383,51.02639236773743 L -114.0040039660956,51.02636653079278 L -114.00403974526355,51.02634024349886 L -114.00407409905439,51.026315791053925 L -114.00412508814355,51.026288937746415 L -114.0041696344292,51.02626762233971 L -114.0042192410537,51.02624488635105 L -114.004268890605,51.02622444182993 L -114.00432073549983,51.0262053555595 L -114.00437122526652,51.02619221154917 L -114.00442389743331,51.026179049454925 L -114.00446787402613,51.02616550110989 L -114.00451112363581,51.026152402264444 L -114.00456084463774,51.02613606683632 L -114.00460771351526,51.02612294983423 L -114.00466249489557,51.02610611972624 L -114.00471148879552,51.02608979325265 L -114.00476622710029,51.026070679698165 L -114.00481450827662,51.02605527016608 L -114.00486859110973,51.02603936593556 L -114.00491332181218,51.02602854128903 L -114.00496529529859,51.02601676340308 L -114.00501796709824,51.02600360104067 L -114.0050735182018,51.025989054106155 L -114.0051153406658,51.02597688014517 L -114.00516292329335,51.025962846832016 L -114.00521337091166,51.02594695968277 L -114.00526671217764,51.025930596822874 L -114.00532293278022,51.02591330786201 L -114.00537553118654,51.02589603791922 L -114.00542884366762,51.02587830764365 L -114.00548214169102,51.025859202809784 L -114.00552755740854,51.0258456360182 L -114.00557592423051,51.025835251444015 L -114.00561054807585,51.02582587436376 L -114.0056645587054,51.02580676941227 L -114.00571271011808,51.025784050837885 L -114.0057653096586,51.02576677892126 L -114.00581080982009,51.02575732033661 L -114.00586704438004,51.02574093907874 L -114.00591094845666,51.02572418983787 L -114.00595338402579,51.02570562472322 L -114.00600374491701,51.025684712858215 L -114.00605500369761,51.02567385147943 L -114.00610922934912,51.02566661279736 L -114.00615908255331,51.02569869554198 L -114.00642856273728,51.0257338013337 L -114.00647555999339,51.025727992251355 L -114.00652416930899,51.025731298679304 L -114.00656988627337,51.02573418273083 L -114.00660988200664,51.02570146672983 L -114.00664912185516,51.025666477247036 L -114.00669997946366,51.0256327717224 L -114.00675160702039,51.02560089195179 L -114.00679898753219,51.02557544008567 L -114.00685420708116,51.02554308360294 L -114.00690305578038,51.02551807120768 L -114.00695702234633,51.02549622378277 L -114.00697288728907,51.025492457025585 L -114.0070132849711,51.02548166689279 L -114.00706444260565,51.025464862843634 L -114.00711714190537,51.025453074965895 L -114.00716258547008,51.02544088296997 L -114.00721656629129,51.02542040186801 L -114.00726396076105,51.02539585777778 L -114.00731131048907,51.025368121406174 L -114.00735216174968,51.02534225619396 L -114.00738282052518,51.025314179231 L -114.0074105280418,51.025282920070914 L -114.00743900563765,51.02525394425493 L -114.0074659859482,51.02522177806055 L -114.007477913541,51.02519977035746 L -114.00748981374467,51.025175937732854 L -114.00750007153509,51.02514160426982 L -114.00751105772078,51.025107271657824 L -114.00752080566357,51.02508482359156 L -114.00753846286723,51.02505866224219 L -114.00757419589365,51.02503009136222 L -114.00761925045705,51.02499597317965 L -114.00764705830913,51.02497019771101 L -114.00767837169059,51.024938004213126 L -114.00772487862461,51.024903876904105 L -114.00776562854912,51.024872527796084 L -114.00781431787206,51.02483929928236 L -114.00785308815826,51.02481893486833 L -114.0078919015603,51.02480084574767 L -114.00794790389149,51.0247712125894 L -114.00798875427326,51.02474534715206 L -114.00803251109605,51.02471946352102 L -114.00808275483585,51.024692159042296 L -114.00813946955915,51.0246620762542 L -114.00815597611447,51.024653275023226 L -114.00820402428583,51.02462462218065 L -114.00825197156189,51.024590027091136 L -114.00830717451034,51.0245567529615 L -114.00835174438198,51.024535885440805 L -114.00840076416775,51.02452137334658 L -114.00845336128214,51.02450411010517 L -114.00849213092344,51.02448327890919 L -114.00853516183834,51.02445831209748 L -114.00858112793648,51.02443469351902 L -114.00861844360125,51.02441432895643 L -114.00866731901583,51.0243911515267 L -114.00871047941021,51.0243734924201 L -114.00875448189586,51.0243617583882 L -114.0088086609765,51.02435224404495 L -114.00886221522642,51.02434775590133 L -114.00891300561085,51.02435105218117 L -114.00909667807879,51.02428855287103 L -114.00912436930905,51.024255927755014 L -114.00916169884674,51.024235563916214 L -114.00920827768142,51.02420646128558 L -114.00925639674071,51.02418145784699 L -114.00930918055984,51.02417468526018 L -114.00936049456435,51.024167022780524 L -114.00941015273995,51.02414794251128 L -114.00943606499933,51.02413771006936 L -114.00948998278555,51.02411403655113 L -114.00954527055767,51.02408441167164 L -114.00959776298726,51.02406165427694 L -114.00965227919016,51.02403067195538 L -114.00969954104744,51.023998359725304 L -114.00974114420758,51.02397431763278 L -114.00978805116473,51.023963023467225 L -114.00983493082386,51.02395082131885 L -114.00988545983009,51.023939957419074 L -114.00993806866,51.02392314299492 L -114.00997372440342,51.023910711606746 L -114.00999424041534,51.02390355849568 L -114.01004583365985,51.02387076030699 L -114.01010029143042,51.02383566855865 L -114.01012671392634,51.02381355234804 L -114.01015949186652,51.02378272359724 L -114.01019363705961,51.02374685235841 L -114.01023865812046,51.02371090733986 L -114.0102881132616,51.02367995213239 L -114.01033535864245,51.02364764773543 L -114.01038551169536,51.02361485851246 L -114.0104313173794,51.023583021672124 L -114.01047934705218,51.02355299245613 L -114.01052321705089,51.0235344066679 L -114.01057992735657,51.023504322689696 L -114.01062663299791,51.023482068781206 L -114.01067775687564,51.023463887713284 L -114.01081926323211,51.023434110481695 L -114.01084123661478,51.02340655571131 L -114.01087482723536,51.02337982601567 L -114.01090978523942,51.02334897077892 L -114.0109483492528,51.02331717935909 L -114.01098041359573,51.02328635044226 L -114.01100670545414,51.02325739193172 L -114.01101106290594,51.02325134320647 L -114.01142458113978,51.02325177996901 L -114.01164364713415,51.02325175834719 L -114.01158997025004,51.02345570731597 L -114.0115557460035,51.023627085308824 L -114.01153384499044,51.023761181513436 L -114.01151176843217,51.02398123876245 L -114.01149806647234,51.024220160196734 L -114.01149457842321,51.02453712525487 L -114.01148624529061,51.02671749681078 L -114.01170356141336,51.026717475249185 L -114.01179141385114,51.02665444819335 L -114.01178900058243,51.026823502688835 L -114.0119404491077,51.02671481189161 L -114.01212312392613,51.026583713378116 L -114.01242449357858,51.02636743121937 L -114.0178711491926,51.026371616551344 L -114.01787027954121,51.027023872391915 L -114.01787014565555,51.027109437851436 L -114.01787012124784,51.02716088984955 L -114.01787281437218,51.027139456051124 L -114.01788079353366,51.02711855094076 L -114.0178938636283,51.02709869235751 L -114.01791169981944,51.02708036759437 L -114.01793386464298,51.02706402890134 L -114.0179598094279,51.027050080000535 L -114.01798889709983,51.0270388625984 L -114.01802041073309,51.02703065458679 L -114.01805357207748,51.02702565835353 L -114.0180874374933,51.02702399630408 L -114.01808756579004,51.02702399628421 L -114.01900031887831,51.02702454096299 L -114.01916595568206,51.02702457684378 L -114.01916683328477,51.0271201081874 L -114.01914663910733,51.02895346676127 L -114.01989217854033,51.02895770227005 L -114.02065249854519,51.02896201671326 L -114.02139417007575,51.02896188958403 L -114.0213962546782,51.03005887775081 L -114.02143661962367,51.03005921735824 L -114.0220011195453,51.03005960688604 L -114.02215042414436,51.03006005244286 L -114.02215550168305,51.03048960807068 L -114.02212455839326,51.031923717941055 L -114.02289626401753,51.03191925961206 L -114.02334959431796,51.03193952631497 L -114.02349208711136,51.03193654911981 L -114.02356916784551,51.031926214262626 L -114.02365091588548,51.03190408295515 L -114.02370930126621,51.03187605995337 L -114.02375833680574,51.03183919290628 L -114.02380503845266,51.03180232631383 L -114.02383950355042,51.03175435446006 L -114.02388320686012,51.031772930053904 L -114.02395301714182,51.03179179604631 L -114.02401484970252,51.03180562847578 L -114.02408067119339,51.031821978080515 L -114.02416643703828,51.03183958209113 L -114.02423624830428,51.031857189348486 L -114.02429409596618,51.031878574747985 L -114.02433997727738,51.03190122117706 L -114.0243758875012,51.03192386966815 L -114.02440382103184,51.0319490369449 L -114.0244277703001,51.03198049967275 L -114.024443742201,51.03201322173073 L -114.024455723867,51.03204091035984 L -114.02446371839908,51.0320748926492 L -114.02446576858442,51.03218062070168 L -114.02446383568935,51.03229767847205 L -114.0244618988089,51.03240718394999 L -114.02446196573261,51.03253430981954 L -114.02446171040322,51.03260989031413 L -114.02446180449415,51.03278862184333 L -114.02446190322497,51.0329761651204 L -114.02446200725744,51.03317377691154 L -114.02446008425082,51.03330971403562 L -114.02445814864504,51.033421736624376 L -114.02445618918088,51.03348844727714 L -114.0244681878052,51.033547602718194 L -114.02448616016261,51.03359039376228 L -114.02451183114076,51.03363259436014 L -114.02453780720278,51.03366116822453 L -114.02466021740057,51.033769528282235 L -114.02528522496696,51.0340325399949 L -114.02514805443641,51.034192057639295 L -114.02514839115577,51.03481417696804 L -114.02514128787102,51.03486658513434 L -114.02514133669787,51.034956820622504 L -114.02514144363569,51.035170256998704 L -114.02514276420665,51.03542903199927 L -114.02513902522007,51.035583397555804 L -114.02514796634682,51.035841636907506 L -114.02514326931524,51.03589607802759 L -114.02514803617827,51.035970651446824 L -114.02514863596822,51.0360409052894 L -114.02515233939125,51.03608684389567 L -114.02514590739209,51.036147014552384 L -114.02514111099768,51.036241859207045 L -114.02513955571199,51.0363530195522 L -114.0251380238235,51.03651007164441 L -114.02513649437579,51.03662948816132 L -114.02513502127371,51.03689260124997 L -114.02513349431864,51.037058832755186 L -114.02513197981139,51.03724545928702 L -114.02513130973055,51.03739317981483 L -114.02512727981568,51.0374344391139 L -114.02512733662729,51.037539479770466 L -114.02512643676538,51.0376604648411 L -114.02512402579782,51.03769499496663 L -114.02512392784811,51.03773534635295 L -114.02514644757333,51.0377351302508 L -114.02556377020021,51.03773468102365 L -114.02766987690556,51.03773637689423 L -114.0276696620746,51.03783771922823 L -114.02790496068103,51.037838358191756 L -114.02828420850268,51.03783826972308 L -114.03024975248793,51.03783779190175 L -114.03109143020757,51.037838798123424 L -114.03397816272974,51.03783679529162 L -114.03563808068826,51.037835721082686 L -114.03567645224335,51.037899472731176 L -114.03576165754295,51.03801880352009 L -114.03580682122167,51.0380775736263 L -114.03589667110388,51.03817830580764 L -114.0370241755447,51.03932889374079 L -114.03807268541675,51.04039992544802 L -114.03891034861198,51.041257121493565 L -114.03912640219721,51.04146856353326 L -114.03930126832222,51.04162738949958 L -114.03941047807552,51.04171718897731 L -114.03960732154228,51.04186901125239 L -114.03987081886889,51.04205340546392 L -114.04016145364035,51.04222985541178 L -114.04046370004693,51.042393704192676 L -114.04071245157415,51.042512743510926 L -114.04090630380442,51.04259818889885 L -114.0411137913832,51.04268436902369 L -114.04135867327733,51.042777973660556 L -114.04159956272427,51.04285814943677 L -114.04187386005617,51.04294620214379 L -114.04225269203353,51.0430513841613 L -114.04243672035504,51.0430952575202 L -114.04271226438041,51.04315408486897 L -114.0427993314051,51.04317142838016 L -114.04279513065784,51.0431794847218 L -114.0427878931136,51.04319130707644 L -114.04278165939452,51.04320148753742 L -114.04275818678794,51.04323359847385 L -114.04273101759114,51.0432607115648 L -114.04269090631162,51.04329611791367 L -114.04266737277163,51.04332411155462 L -114.04264678032597,51.04335438661142 L -114.04263123467217,51.04338324843526 L -114.04260635263142,51.04341811071334 L -114.04257617924819,51.04345214605991 L -114.04256139222043,51.043468620641065 L -114.0425356767134,51.04349663212967 L -114.04251655272803,51.04352826407824 L -114.04249747626366,51.04356354673779 L -114.04248194513495,51.043592876001654 L -114.04246638236334,51.04362037136883 L -114.04244728989502,51.04365382910914 L -114.0424150430319,51.04368187890107 L -114.04236835425719,51.04371412223767 L -114.04233683416292,51.04374171326776 L -114.0423155597375,51.04377518975569 L -114.0423007240754,51.04380267584693 L -114.04227435742374,51.04383480481063 L -114.04224285270305,51.04386377123869 L -114.04220781719702,51.04389914861416 L -114.04218211549893,51.04392716001785 L -114.04214780859644,51.04396252812224 L -114.04211415205327,51.043993329196766 L -114.04208275232365,51.04402822876787 L -114.04206429616409,51.04405620247606 L -114.04204076186882,51.044084204078096 L -114.04200539188203,51.04411275830332 L -114.04195932263463,51.04413543617388 L -114.04192060094844,51.04416354298867 L -114.04189782232456,51.04419155328007 L -114.0418765294115,51.04422092048449 L -114.04185308378834,51.044252590726686 L -114.04182457834806,51.04428566337538 L -114.04179741960485,51.04431141968965 L -114.04176666966517,51.04433993533129 L -114.04173811763005,51.044368892474765 L -114.0417139143985,51.044398746133524 L -114.04168690857078,51.04443454300092 L -114.04165761304964,51.04446305000375 L -114.04162622612253,51.04449705946108 L -114.04159840200496,51.04452692427347 L -114.041578532559,51.044555373962396 L -114.04156161889246,51.044586547385045 L -114.04151647122733,51.04462155057534 L -114.04146548890157,51.044654307485686 L -114.04142014471107,51.044676976793525 L -114.04137276854365,51.044707881398956 L -114.04133334970203,51.044738738222556 L -114.04128602087415,51.04477330159723 L -114.04124013005209,51.044806937603646 L -114.04119254182459,51.04482413286673 L -114.0411410902608,51.04482673913304 L -114.04109336555744,51.044834809824344 L -114.04107528636968,51.04483857298893 L -114.04102045408541,51.0448562831422 L -114.0409743512462,51.04487621067386 L -114.04092456592153,51.04489251661424 L -114.0408712796814,51.044917058353256 L -114.04082102570041,51.04495027320244 L -114.04077078344355,51.04498392942161 L -114.04071611877187,51.04501259785777 L -114.04066554567542,51.04502525413021 L -114.04061195636343,51.045029703802506 L -114.04055900357571,51.04502820112713 L -114.04051391669954,51.04501981046488 L -114.04046295007308,51.045006423529315 L -114.0404177885781,51.044992540128874 L -114.04037262569184,51.04497866570118 L -114.04031796168265,51.044960731174456 L -114.0402734964305,51.044945472048816 L -114.0402261979411,51.04493388978329 L -114.040176671424,51.04492004375067 L -114.04012856941189,51.04490435431267 L -114.04008195171357,51.0448900217955 L -114.04003391035607,51.04487844959553 L -114.03998586965915,51.04486596042274 L -114.03993634248997,51.0448511883458 L -114.03988755887421,51.04483870747722 L -114.03984021403056,51.04482438410143 L -114.03978992996706,51.04480824578091 L -114.03973910059092,51.04480308408859 L -114.03969115004281,51.04479744494071 L -114.03967587203417,51.044793430818196 L -114.03962643749158,51.04478505926858 L -114.03957121253391,51.04477764257033 L -114.03952392877865,51.04476788583016 L -114.03946797578554,51.04475955147755 L -114.03941422049118,51.044753033182175 L -114.03936186004124,51.04474331404721 L -114.03931466657033,51.044739040929365 L -114.03926091209551,51.04473343861698 L -114.03921438580402,51.04472550641301 L -114.03916281387785,51.04471897827966 L -114.03911340891099,51.04471334837178 L -114.03906318495336,51.044700409164385 L -114.03901732551878,51.04468835936106 L -114.0389684667948,51.04467084478178 L -114.03891445509048,51.04464743463252 L -114.03886777830392,51.04462990130508 L -114.03881449540556,51.044606480978416 L -114.03876925863375,51.04458848865682 L -114.03872702117478,51.04457596108203 L -114.03868116271386,51.04456482809911 L -114.03863536577919,51.04455734490975 L -114.03858517216798,51.04454623939229 L -114.03853934342531,51.04453647278339 L -114.03849275776713,51.04452534895595 L -114.03844612593339,51.044510097938385 L -114.03839497951851,51.044484834720784 L -114.03834231740105,51.04445455570641 L -114.0382876240177,51.04443388646022 L -114.03825560325821,51.04442677617705 L -114.03820472800675,51.04441887196334 L -114.03815379272494,51.04440730892538 L -114.03810064485269,51.04439302179812 L -114.03804967923357,51.04437917533218 L -114.03800309347523,51.04436759283295 L -114.03795578045352,51.0443560096523 L -114.03790846670773,51.04434351039887 L -114.0378632601851,51.0443268931454 L -114.0378209799862,51.0443120728743 L -114.0377772588391,51.044298187985994 L -114.03772411157985,51.04428435916352 L -114.03767393385093,51.044274620587686 L -114.03761940671765,51.04426490946059 L -114.03757215352032,51.04425651835983 L -114.03751903636554,51.044244515249346 L -114.0374682206878,51.04423404322763 L -114.03741938055745,51.04422412881385 L -114.03736401912501,51.044207110079654 L -114.03731961554519,51.04419550773162 L -114.03727516843256,51.044181164410595 L -114.0372306753097,51.04416453769475 L -114.03718618149101,51.04414700210005 L -114.03713946089303,51.044126735215684 L -114.037086890666,51.04410284730589 L -114.03707009965248,51.044094725013764 L -114.03701688162066,51.04408279362465 L -114.03697458691566,51.04406704620981 L -114.03693153428294,51.04405038296516 L -114.03688923893932,51.04403555337144 L -114.03684542767607,51.044015248592956 L -114.0368001929477,51.04399814549069 z" /></g></g></svg>